<svg xmlns="http://www.w3.org/2000/svg" width="590" height="232" viewBox="0 0 590 232" fill="none" role="img" aria-label="Projeto AAPM - Harity"><title>Projeto AAPM - Harity</title><defs>
<linearGradient id="bgG" x1="0" y1="0" x2="0" y2="1">
  <stop offset="0" stop-color="#030A18"/><stop offset="1" stop-color="#081738"/>
</linearGradient>
<linearGradient id="tg" x1="0" y1="0" x2="1" y2="0">
  <stop offset="0" stop-color="#EAF2FF"/><stop offset="0.55" stop-color="#60A5FA"/><stop offset="1" stop-color="#38BDF8"/>
</linearGradient>
<linearGradient id="accG" x1="0" y1="0" x2="1" y2="1">
  <stop offset="0" stop-color="#2563EB"/><stop offset="1" stop-color="#38BDF8"/>
</linearGradient>
<linearGradient id="lineG" x1="0" y1="0" x2="1" y2="0">
  <stop offset="0" stop-color="#60A5FA" stop-opacity="0.9"/>
  <stop offset="0.5" stop-color="#1D3A7A" stop-opacity="0.8"/>
  <stop offset="1" stop-color="#1D3A7A" stop-opacity="0"/>
</linearGradient>
<linearGradient id="panelG" x1="0" y1="0" x2="0" y2="1">
  <stop offset="0" stop-color="#0E2252" stop-opacity="0.85"/>
  <stop offset="1" stop-color="#0A1B3F" stop-opacity="0.75"/>
</linearGradient>
<filter id="blur60" x="-60%" y="-60%" width="220%" height="220%"><feGaussianBlur stdDeviation="60"/></filter>
<filter id="blur8" x="-60%" y="-60%" width="220%" height="220%"><feGaussianBlur stdDeviation="8"/></filter>
<filter id="blur3" x="-60%" y="-60%" width="220%" height="220%"><feGaussianBlur stdDeviation="3"/></filter>
<pattern id="grid" width="40" height="40" patternUnits="userSpaceOnUse">
  <path d="M40 0H0V40" stroke="#1D3A7A" stroke-opacity="0.16" stroke-width="1"/>
</pattern>
<radialGradient id="fadeG" cx="0.5" cy="0.45" r="0.65">
  <stop offset="0" stop-color="#fff"/><stop offset="1" stop-color="#000"/>
</radialGradient>
<mask id="fadeM"><rect width="100%" height="100%" fill="url(#fadeG)"/></mask>

<linearGradient id="sweep" gradientUnits="userSpaceOnUse" x1="0" y1="0" x2="265.5" y2="0">
  <stop offset="0" stop-color="#1D3A7A" stop-opacity="0.55"/>
  <stop offset="0.5" stop-color="#60A5FA" stop-opacity="1"/>
  <stop offset="1" stop-color="#1D3A7A" stop-opacity="0.55"/>
  <animateTransform attributeName="gradientTransform" type="translate" values="-265.5 0;590 0" dur="8s" repeatCount="indefinite"/>
</linearGradient></defs><g>
  <rect x="0" y="0" width="590" height="232" rx="18" fill="url(#panelG)"/>
  <rect x="0.5" y="0.5" width="589" height="231" rx="18" stroke="#1D3A7A" stroke-opacity="0.8"/>
  <rect x="0.5" y="0.5" width="589" height="231" rx="18" stroke="url(#sweep)" stroke-width="1.5"/>
</g><path d="M28 30h10l3 4h15a3 3 0 0 1 3 3v17a3 3 0 0 1-3 3H28a3 3 0 0 1-3-3V33a3 3 0 0 1 3-3z" fill="url(#accG)"/><text x="70" y="52" font-family="ui-monospace,SFMono-Regular,'JetBrains Mono','Cascadia Code',Menlo,Consolas,'Liberation Mono',monospace" font-size="17" font-weight="700" fill="#EAF2FF">AAPM - Harity</text><rect x="485" y="32" width="77" height="28" rx="14" fill="#0E2252" fill-opacity="0.8" stroke="#1D3A7A"/><circle cx="501" cy="46" r="4" fill="#38BDF8"><animate attributeName="opacity" values="1;0.3;1" keyTimes="0;0.5;1" dur="2.2s" repeatCount="indefinite" /></circle><text x="513" y="50" font-family="ui-monospace,SFMono-Regular,'JetBrains Mono','Cascadia Code',Menlo,Consolas,'Liberation Mono',monospace" font-size="12" fill="#8AA3D1">ativo</text><text x="28" y="92" font-family="-apple-system,BlinkMacSystemFont,'Segoe UI',Inter,'Helvetica Neue',Arial,sans-serif" font-size="15" fill="#8AA3D1">Dashboard financeiro de alta performance com análise de dados</text><text x="28" y="116" font-family="-apple-system,BlinkMacSystemFont,'Segoe UI',Inter,'Helvetica Neue',Arial,sans-serif" font-size="15" fill="#8AA3D1">em tempo real e relatórios operacionais.</text><rect x="28" y="164" width="79" height="26" rx="8" fill="#3B82F6" fill-opacity="0.14" stroke="#60A5FA" stroke-opacity="0.45"/><text x="42" y="181" font-family="ui-monospace,SFMono-Regular,'JetBrains Mono','Cascadia Code',Menlo,Consolas,'Liberation Mono',monospace" font-size="12" fill="#93C5FD">Node.js</text><rect x="115" y="164" width="101" height="26" rx="8" fill="#3B82F6" fill-opacity="0.14" stroke="#60A5FA" stroke-opacity="0.45"/><text x="129" y="181" font-family="ui-monospace,SFMono-Regular,'JetBrains Mono','Cascadia Code',Menlo,Consolas,'Liberation Mono',monospace" font-size="12" fill="#93C5FD">TypeScript</text><rect x="224" y="164" width="101" height="26" rx="8" fill="#3B82F6" fill-opacity="0.14" stroke="#60A5FA" stroke-opacity="0.45"/><text x="238" y="181" font-family="ui-monospace,SFMono-Regular,'JetBrains Mono','Cascadia Code',Menlo,Consolas,'Liberation Mono',monospace" font-size="12" fill="#93C5FD">PostgreSQL</text><line x1="28" y1="204" x2="562" y2="204" stroke="#1D3A7A" stroke-opacity="0.6" stroke-dasharray="3 5"/><text x="28" y="223" font-family="ui-monospace,SFMono-Regular,'JetBrains Mono','Cascadia Code',Menlo,Consolas,'Liberation Mono',monospace" font-size="11.5" fill="#6B84B8">github.com/kazukiwi/AAPM - Harity</text><text x="562" y="223" text-anchor="end" font-family="ui-monospace,SFMono-Regular,'JetBrains Mono','Cascadia Code',Menlo,Consolas,'Liberation Mono',monospace" font-size="12" fill="#60A5FA">abrir →</text></svg>